<svg id="svg" xmlns="http://www.w3.org/2000/svg" xmlns:xlink="http://www.w3.org/1999/xlink" width="400" height="400" viewBox="0, 0, 400,400"><g id="svgg"><path id="path0" d="M359.900 180.144 C 341.200 199.667,308.685 233.610,287.645 255.571 L 249.391 295.500 250.345 295.632 C 252.498 295.931,342.584 295.817,345.008 295.512 C 373.588 291.921,392.349 269.835,399.259 231.641 L 399.900 228.100 399.900 199.400 L 399.900 170.700 399.448 167.954 C 398.769 163.827,398.040 159.957,397.479 157.500 C 396.615 153.724,395.560 149.723,395.282 149.175 C 395.136 148.887,395.058 148.609,395.108 148.558 C 395.189 148.478,394.636 146.664,394.268 145.800 C 394.197 145.635,394.106 145.325,394.065 145.112 C 394.024 144.899,393.970 144.707,393.945 144.685 C 393.920 144.663,378.600 160.620,359.900 180.144 M229.646 309.596 L 235.792 309.700 195.083 352.191 C 151.577 397.602,154.179 394.769,155.663 395.092 C 157.869 395.571,161.109 396.203,161.911 396.311 C 162.455 396.383,162.951 396.474,163.014 396.511 C 163.077 396.548,163.572 396.639,164.114 396.712 C 165.102 396.845,165.469 396.906,166.400 397.094 C 184.482 400.752,224.592 400.149,246.649 395.888 C 274.596 390.489,292.028 379.358,296.778 363.877 C 298.011 359.861,297.915 362.656,297.850 332.550 L 297.800 309.400 260.650 309.446 C 240.218 309.471,226.266 309.538,229.646 309.596 M261.200 334.636 C 277.776 340.480,276.934 363.546,259.982 368.019 C 248.571 371.030,237.154 360.968,238.585 349.163 C 239.899 338.317,251.148 331.092,261.200 334.636 M147.000 392.877 C 147.000 392.919,147.225 392.996,147.500 393.049 C 147.775 393.102,148.000 393.067,148.000 392.972 C 148.000 392.878,147.775 392.800,147.500 392.800 C 147.225 392.800,147.000 392.835,147.000 392.877 " stroke="none" fill="#fccc3b" fill-rule="evenodd"></path><path id="path1" d="M310.596 125.350 C 310.593 138.743,310.543 150.510,310.484 151.500 C 308.776 180.343,293.276 199.685,268.100 204.390 C 262.056 205.520,264.176 205.466,221.400 205.591 C 199.675 205.655,185.074 205.728,188.952 205.754 L 196.005 205.800 179.552 222.973 C 170.504 232.419,149.825 254.003,133.600 270.939 L 104.100 301.732 103.998 296.916 C 103.941 294.267,103.851 305.015,103.798 320.800 C 103.744 336.585,103.767 350.382,103.849 351.459 C 104.998 366.506,116.694 380.517,134.600 388.294 C 136.877 389.283,138.691 390.031,139.000 390.110 C 139.165 390.151,140.405 390.594,141.756 391.093 C 143.107 391.592,144.392 392.000,144.613 392.000 C 144.834 392.000,145.255 392.158,145.549 392.350 C 145.966 392.623,146.045 392.634,145.904 392.400 C 145.748 392.141,145.770 392.138,146.062 392.374 C 146.248 392.525,146.400 392.575,146.400 392.484 C 146.400 392.394,146.508 392.428,146.640 392.560 C 146.772 392.692,147.132 392.800,147.440 392.800 C 147.748 392.800,148.000 392.887,148.000 392.994 C 148.000 393.100,148.135 393.136,148.300 393.072 C 148.465 393.009,148.600 393.042,148.600 393.147 C 148.600 393.350,150.735 393.929,151.150 393.838 C 151.287 393.807,151.400 393.870,151.400 393.978 C 151.400 394.086,151.625 394.133,151.900 394.083 C 152.193 394.030,152.400 394.086,152.400 394.219 C 152.400 394.346,152.572 394.402,152.790 394.345 C 153.005 394.288,153.208 394.325,153.242 394.426 C 153.603 395.508,152.878 396.240,195.073 352.200 L 235.792 309.700 228.946 309.579 C 225.181 309.512,217.218 309.444,211.250 309.429 L 200.400 309.400 200.400 302.600 L 200.400 295.800 225.750 295.770 C 239.693 295.753,250.715 295.686,250.244 295.620 L 249.388 295.500 287.137 256.100 C 307.899 234.430,340.396 200.510,359.354 180.722 C 385.076 153.872,393.786 144.662,393.684 144.422 C 393.608 144.245,393.553 143.941,393.561 143.746 C 393.569 143.551,393.491 143.444,393.388 143.507 C 393.285 143.571,393.193 143.506,393.185 143.362 C 393.176 143.218,393.137 142.965,393.096 142.800 C 393.056 142.635,392.977 142.288,392.919 142.030 C 392.862 141.771,392.711 141.433,392.583 141.280 C 392.455 141.126,392.416 141.000,392.495 141.000 C 392.575 141.000,392.450 140.680,392.219 140.288 C 391.988 139.896,391.899 139.637,392.020 139.713 C 392.142 139.788,392.102 139.636,391.931 139.375 C 391.759 139.114,391.603 138.810,391.583 138.700 C 391.509 138.300,391.115 137.491,390.811 137.116 C 390.546 136.788,390.545 136.756,390.800 136.900 C 390.999 137.012,390.975 136.927,390.730 136.647 C 390.527 136.415,390.420 136.130,390.492 136.013 C 390.564 135.896,390.528 135.800,390.412 135.800 C 390.295 135.800,390.200 135.681,390.200 135.535 C 390.200 134.582,385.382 126.030,383.082 122.900 C 382.597 122.240,382.070 121.520,381.910 121.300 C 381.458 120.679,380.616 119.651,379.212 118.008 C 373.288 111.075,365.208 105.594,357.100 103.007 C 350.790 100.994,350.978 101.008,329.350 101.004 L 310.600 101.000 310.596 125.350 " stroke="none" fill="#fcd646" fill-rule="evenodd"></path><path id="path2" d="M185.100 0.215 C 142.919 2.259,116.020 12.769,106.692 30.851 C 103.606 36.833,103.508 37.689,103.668 57.100 C 103.740 65.790,103.799 76.748,103.799 81.450 L 103.800 90.000 152.379 90.000 C 196.491 90.000,200.968 90.029,201.079 90.316 C 201.145 90.490,201.200 93.573,201.200 97.166 L 201.200 103.700 129.350 103.700 C 61.237 103.700,57.380 103.719,55.200 104.059 C 25.184 108.741,6.034 134.152,1.209 175.700 C -0.405 189.594,-0.401 209.793,1.217 224.300 C 2.874 239.162,5.914 251.631,10.455 262.200 C 11.927 265.626,15.604 272.575,16.046 272.767 C 16.131 272.803,16.200 272.944,16.200 273.079 C 16.200 273.214,16.370 273.508,16.579 273.731 C 16.787 273.955,17.104 274.422,17.284 274.769 C 17.463 275.116,17.703 275.400,17.817 275.400 C 17.931 275.400,17.967 275.491,17.899 275.602 C 17.830 275.713,18.050 276.080,18.387 276.418 C 18.724 276.755,19.000 277.156,19.000 277.309 C 19.000 277.463,19.266 277.785,19.592 278.026 C 19.918 278.267,20.139 278.536,20.084 278.625 C 20.029 278.714,20.168 278.902,20.392 279.042 C 20.617 279.182,20.800 279.369,20.800 279.458 C 20.800 279.547,21.138 279.930,21.550 280.309 C 21.963 280.688,22.228 280.999,22.140 280.999 C 22.052 281.000,22.208 281.211,22.486 281.470 C 22.765 281.728,22.935 281.998,22.863 282.070 C 22.792 282.141,22.889 282.200,23.078 282.200 C 23.268 282.200,23.375 282.278,23.317 282.373 C 23.258 282.469,23.408 282.716,23.651 282.923 C 24.088 283.295,24.089 283.295,23.797 282.900 C 23.522 282.530,23.526 282.520,23.850 282.774 C 24.043 282.925,24.200 283.151,24.200 283.275 C 24.200 283.400,24.449 283.736,24.752 284.023 L 25.305 284.544 84.126 225.922 C 116.478 193.680,175.179 135.177,214.574 95.916 C 253.968 56.654,286.200 24.436,286.200 24.319 C 286.200 24.091,284.402 22.342,284.397 22.566 C 284.395 22.640,284.283 22.485,284.147 22.221 C 284.011 21.958,283.629 21.598,283.297 21.421 C 282.765 21.138,282.350 20.797,280.780 19.350 C 280.571 19.157,280.400 19.036,280.400 19.080 C 280.400 19.124,280.120 18.899,279.779 18.580 C 279.437 18.261,279.032 18.000,278.879 18.000 C 278.725 18.000,278.600 17.912,278.600 17.805 C 278.600 17.698,278.316 17.463,277.969 17.284 C 277.622 17.104,277.239 16.876,277.119 16.776 C 274.479 14.586,266.232 10.590,259.300 8.143 C 241.376 1.816,213.513 -1.161,185.100 0.215 M149.760 31.418 C 161.381 34.074,166.795 47.929,160.130 57.954 C 154.185 66.897,141.228 68.273,133.615 60.770 C 121.025 48.363,132.514 27.476,149.760 31.418 " stroke="none" fill="#377cae" fill-rule="evenodd"></path><path id="path3" d="M282.229 20.697 C 282.844 21.345,283.126 21.348,282.563 20.700 C 282.324 20.425,282.045 20.200,281.943 20.200 C 281.841 20.200,281.970 20.423,282.229 20.697 M267.900 42.719 C 257.780 52.850,199.078 111.386,137.450 172.801 C 75.822 234.215,25.400 284.507,25.400 284.561 C 25.400 284.708,27.607 286.802,28.602 287.600 C 29.083 287.985,29.763 288.548,30.114 288.850 C 30.466 289.152,30.812 289.400,30.885 289.400 C 30.957 289.400,31.215 289.586,31.458 289.814 C 33.921 292.125,42.054 295.945,47.393 297.298 C 52.210 298.519,51.887 298.505,73.950 298.446 L 91.000 298.400 91.002 273.250 C 91.003 248.310,91.056 245.936,91.712 241.300 C 92.080 238.701,93.272 233.180,93.817 231.555 C 94.028 230.925,94.232 230.250,94.270 230.055 C 94.308 229.860,94.443 229.447,94.569 229.137 C 94.696 228.827,94.800 228.512,94.799 228.437 C 94.798 228.269,95.904 225.428,96.450 224.200 C 97.759 221.253,99.800 217.522,101.348 215.248 C 101.817 214.559,102.200 213.914,102.200 213.815 C 102.200 213.715,102.278 213.603,102.374 213.567 C 102.470 213.530,103.211 212.690,104.021 211.700 C 107.376 207.600,111.244 204.245,115.600 201.655 C 116.755 200.968,117.790 200.333,117.900 200.242 C 118.010 200.152,118.190 200.059,118.300 200.036 C 118.893 199.914,119.200 199.749,119.200 199.553 C 119.200 199.432,119.256 199.390,119.325 199.459 C 119.394 199.528,119.732 199.434,120.075 199.251 C 121.519 198.480,126.810 196.497,128.000 196.280 C 128.275 196.229,128.635 196.132,128.800 196.064 C 129.322 195.847,130.769 195.520,133.500 195.000 C 139.644 193.832,140.946 193.806,195.615 193.803 C 248.573 193.800,247.866 193.811,253.379 192.885 C 274.973 189.260,290.057 177.152,295.282 159.247 C 297.854 150.435,297.836 150.900,297.752 92.900 L 297.684 46.300 297.251 44.340 C 295.938 38.394,293.173 32.327,290.017 28.468 C 289.733 28.120,289.230 27.499,288.900 27.088 C 288.570 26.676,287.850 25.880,287.300 25.320 L 286.300 24.300 267.900 42.719 M133.189 36.150 L 132.500 36.900 133.250 36.211 C 133.948 35.569,134.092 35.400,133.939 35.400 C 133.906 35.400,133.568 35.738,133.189 36.150 M201.000 96.994 L 201.000 103.587 198.650 103.651 L 196.300 103.714 198.750 103.757 L 201.200 103.800 201.200 97.100 C 201.200 93.415,201.155 90.400,201.100 90.400 C 201.045 90.400,201.000 93.367,201.000 96.994 M21.157 280.119 C 21.411 280.594,21.968 281.099,22.097 280.970 C 22.144 280.922,21.903 280.618,21.559 280.294 C 21.103 279.863,20.994 279.816,21.157 280.119 " stroke="none" fill="#346c94" fill-rule="evenodd"></path><path id="path4" d="M153.500 205.824 C 125.101 208.728,106.464 225.460,104.296 250.000 C 104.223 250.825,104.111 251.725,104.048 252.000 C 103.861 252.802,103.780 287.647,103.948 295.016 L 104.100 301.732 133.600 270.940 C 149.825 254.004,170.490 232.433,179.522 223.005 L 195.944 205.863 184.722 205.726 C 170.915 205.557,155.645 205.605,153.500 205.824 " stroke="none" fill="#fcdc54" fill-rule="evenodd"></path></g></svg>